<svg xmlns="http://www.w3.org/2000/svg" width="192" height="192" viewBox="0 0 512 512">
  <rect width="512" height="512" rx="96" fill="#ea580c"/>
  <g transform="translate(256, 248)" fill="white">
    <!-- Chef hat top (toque) -->
    <path d="
      M-68,20
      L-68,-10
      C-68,-25 -65,-42 -55,-58
      C-45,-74 -30,-88 -10,-95
      C-5,-97 0,-97 0,-97
      C0,-97 5,-97 10,-95
      C30,-88 45,-74 55,-58
      C65,-42 68,-25 68,-10
      L68,20
      Z
    " />
    <!-- Left puff -->
    <ellipse cx="-72" cy="-15" rx="42" ry="48" />
    <!-- Right puff -->
    <ellipse cx="72" cy="-15" rx="42" ry="48" />
    <!-- Center top puff -->
    <ellipse cx="0" cy="-55" rx="50" ry="45" />
    <!-- Center-left puff -->
    <ellipse cx="-42" cy="-45" rx="40" ry="42" />
    <!-- Center-right puff -->
    <ellipse cx="42" cy="-45" rx="40" ry="42" />
    <!-- Hat band / base -->
    <rect x="-72" y="10" width="144" height="30" rx="4" />
    <!-- Hat body below band -->
    <rect x="-60" y="40" width="120" height="65" rx="6" />
    <!-- Pleats on hat body -->
    <line x1="-30" y1="44" x2="-30" y2="100" stroke="#ea580c" stroke-width="2.5" opacity="0.2"/>
    <line x1="0" y1="44" x2="0" y2="100" stroke="#ea580c" stroke-width="2.5" opacity="0.2"/>
    <line x1="30" y1="44" x2="30" y2="100" stroke="#ea580c" stroke-width="2.5" opacity="0.2"/>
  </g>
</svg>
